<svg width="270" height="230" viewBox="0 0 270 154" fill="none" xmlns="http://www.w3.org/2000/svg">
  <style>
    .char {
      font-family: 'Courier New', Courier, monospace;
      font-size: 16px;
      font-weight: 700;
      fill: #24292f;
      transform-box: fill-box;
      animation: wave 1.3s ease-in-out infinite;
    }
    
    @keyframes wave {
      0%, 100% { transform: translateY(0); }
      50% { transform: translateY(-2px); }
    }
    
    .c0 { animation-delay: 0.000s; }
    .c1 { animation-delay: 0.025s; }
    .c2 { animation-delay: 0.050s; }
    .c3 { animation-delay: 0.075s; }
    .c4 { animation-delay: 0.100s; }
    .c5 { animation-delay: 0.125s; }
    .c6 { animation-delay: 0.150s; }
    .c7 { animation-delay: 0.175s; }
    .c8 { animation-delay: 0.200s; }
    .c9 { animation-delay: 0.225s; }
    .c10 { animation-delay: 0.250s; }
    .c11 { animation-delay: 0.275s; }
    .c12 { animation-delay: 0.300s; }
    .c13 { animation-delay: 0.325s; }
    .c14 { animation-delay: 0.350s; }
    .c15 { animation-delay: 0.375s; }
    .c16 { animation-delay: 0.400s; }
    .c17 { animation-delay: 0.425s; }
    .c18 { animation-delay: 0.450s; }
    .c19 { animation-delay: 0.475s; }
    .c20 { animation-delay: 0.500s; }
    .c21 { animation-delay: 0.525s; }
    .c22 { animation-delay: 0.550s; }
    .c23 { animation-delay: 0.575s; }
    .c24 { animation-delay: 0.600s; }
    .c25 { animation-delay: 0.625s; }
    .c26 { animation-delay: 0.650s; }
    .c27 { animation-delay: 0.675s; }
    .c28 { animation-delay: 0.700s; }
    .c29 { animation-delay: 0.725s; }
    .c30 { animation-delay: 0.750s; }
    .c31 { animation-delay: 0.775s; }
    .c32 { animation-delay: 0.800s; }
    .c33 { animation-delay: 0.825s; }
    .c34 { animation-delay: 0.850s; }
    .c35 { animation-delay: 0.875s; }
    .c36 { animation-delay: 0.900s; }
    .c37 { animation-delay: 0.925s; }
    .c38 { animation-delay: 0.950s; }
    .c39 { animation-delay: 0.975s; }
    .c40 { animation-delay: 1.000s; }
    .c41 { animation-delay: 1.025s; }
    .c42 { animation-delay: 1.050s; }
    .c43 { animation-delay: 1.075s; }
    .c44 { animation-delay: 1.100s; }
    .c45 { animation-delay: 1.125s; }
    .c46 { animation-delay: 1.150s; }
    .c47 { animation-delay: 1.175s; }
    .c48 { animation-delay: 1.200s; }
    .c49 { animation-delay: 1.225s; }
    .c50 { animation-delay: 1.250s; }
    .c51 { animation-delay: 1.275s; }
    .c52 { animation-delay: 1.300s; }
    .c53 { animation-delay: 1.325s; }
    .c54 { animation-delay: 1.350s; }
    .c55 { animation-delay: 1.375s; }
    .c56 { animation-delay: 1.400s; }
    .c57 { animation-delay: 1.425s; }
    .c58 { animation-delay: 1.450s; }
    .c59 { animation-delay: 1.475s; }
    .c60 { animation-delay: 1.500s; }
    .c61 { animation-delay: 1.525s; }
    .c62 { animation-delay: 1.550s; }
  </style>
  
  <!-- KHALED - Row 1 (y=14) -->
  <text x="0.0" y="14" class="char c0"> </text>
  <text x="8.4" y="14" class="char c1">_</text>
  <text x="16.8" y="14" class="char c2"> </text>
  <text x="25.2" y="14" class="char c3"> </text>
  <text x="33.6" y="14" class="char c4"> </text>
  <text x="42.0" y="14" class="char c5"> </text>
  <text x="50.4" y="14" class="char c6">_</text>
  <text x="58.8" y="14" class="char c7"> </text>
  <text x="67.2" y="14" class="char c8"> </text>
  <text x="75.6" y="14" class="char c9"> </text>
  <text x="84.0" y="14" class="char c10"> </text>
  <text x="92.4" y="14" class="char c11"> </text>
  <text x="100.8" y="14" class="char c12"> </text>
  <text x="109.2" y="14" class="char c13"> </text>
  <text x="117.6" y="14" class="char c14"> </text>
  <text x="126.0" y="14" class="char c15"> </text>
  <text x="134.4" y="14" class="char c16"> </text>
  <text x="142.8" y="14" class="char c17"> </text>
  <text x="151.2" y="14" class="char c18">_</text>
  <text x="159.6" y="14" class="char c19"> </text>
  <text x="168.0" y="14" class="char c20"> </text>
  <text x="176.4" y="14" class="char c21"> </text>
  <text x="184.8" y="14" class="char c22"> </text>
  <text x="193.2" y="14" class="char c23"> </text>
  <text x="201.6" y="14" class="char c24"> </text>
  <text x="210.0" y="14" class="char c25"> </text>
  <text x="218.4" y="14" class="char c26"> </text>
  <text x="226.8" y="14" class="char c27"> </text>
  <text x="235.2" y="14" class="char c28"> </text>
  <text x="243.6" y="14" class="char c29">_</text>
  <text x="252.0" y="14" class="char c30"> </text>

  <!-- KHALED - Row 2 (y=28) -->
  <text x="0.0" y="28" class="char c0">|</text>
  <text x="8.4" y="28" class="char c1"> </text>
  <text x="16.8" y="28" class="char c2">|</text>
  <text x="25.2" y="28" class="char c3"> </text>
  <text x="33.6" y="28" class="char c4">_</text>
  <text x="42.0" y="28" class="char c5">|</text>
  <text x="50.4" y="28" class="char c6"> </text>
  <text x="58.8" y="28" class="char c7">|</text>
  <text x="67.2" y="28" class="char c8">_</text>
  <text x="75.6" y="28" class="char c9">_</text>
  <text x="84.0" y="28" class="char c10"> </text>
  <text x="92.4" y="28" class="char c11"> </text>
  <text x="100.8" y="28" class="char c12"> </text>
  <text x="109.2" y="28" class="char c13">_</text>
  <text x="117.6" y="28" class="char c14">_</text>
  <text x="126.0" y="28" class="char c15"> </text>
  <text x="134.4" y="28" class="char c16">_</text>
  <text x="142.8" y="28" class="char c17">|</text>
  <text x="151.2" y="28" class="char c18"> </text>
  <text x="159.6" y="28" class="char c19">|</text>
  <text x="168.0" y="28" class="char c20"> </text>
  <text x="176.4" y="28" class="char c21">_</text>
  <text x="184.8" y="28" class="char c22">_</text>
  <text x="193.2" y="28" class="char c23">_</text>
  <text x="201.6" y="28" class="char c24"> </text>
  <text x="210.0" y="28" class="char c25"> </text>
  <text x="218.4" y="28" class="char c26">_</text>
  <text x="226.8" y="28" class="char c27">_</text>
  <text x="235.2" y="28" class="char c28">|</text>
  <text x="243.6" y="28" class="char c29"> </text>
  <text x="252.0" y="28" class="char c30">|</text>

  <!-- KHALED - Row 3 (y=42) -->
  <text x="0.0" y="42" class="char c0">|</text>
  <text x="8.4" y="42" class="char c1"> </text>
  <text x="16.8" y="42" class="char c2">|</text>
  <text x="25.2" y="42" class="char c3">/</text>
  <text x="33.6" y="42" class="char c4"> </text>
  <text x="42.0" y="42" class="char c5">/</text>
  <text x="50.4" y="42" class="char c6"> </text>
  <text x="58.8" y="42" class="char c7">'</text>
  <text x="67.2" y="42" class="char c8">_</text>
  <text x="75.6" y="42" class="char c9"> </text>
  <text x="84.0" y="42" class="char c10">\</text>
  <text x="92.4" y="42" class="char c11"> </text>
  <text x="100.8" y="42" class="char c12">/</text>
  <text x="109.2" y="42" class="char c13"> </text>
  <text x="117.6" y="42" class="char c14">_</text>
  <text x="126.0" y="42" class="char c15">`</text>
  <text x="134.4" y="42" class="char c16"> </text>
  <text x="142.8" y="42" class="char c17">|</text>
  <text x="151.2" y="42" class="char c18"> </text>
  <text x="159.6" y="42" class="char c19">|</text>
  <text x="168.0" y="42" class="char c20">/</text>
  <text x="176.4" y="42" class="char c21"> </text>
  <text x="184.8" y="42" class="char c22">_</text>
  <text x="193.2" y="42" class="char c23"> </text>
  <text x="201.6" y="42" class="char c24">\</text>
  <text x="210.0" y="42" class="char c25">/</text>
  <text x="218.4" y="42" class="char c26"> </text>
  <text x="226.8" y="42" class="char c27">_</text>
  <text x="235.2" y="42" class="char c28">`</text>
  <text x="243.6" y="42" class="char c29"> </text>
  <text x="252.0" y="42" class="char c30">|</text>

  <!-- KHALED - Row 4 (y=56) -->
  <text x="0.0" y="56" class="char c0">|</text>
  <text x="8.4" y="56" class="char c1"> </text>
  <text x="16.8" y="56" class="char c2"> </text>
  <text x="25.2" y="56" class="char c3"> </text>
  <text x="33.6" y="56" class="char c4">&lt;</text>
  <text x="42.0" y="56" class="char c5">|</text>
  <text x="50.4" y="56" class="char c6"> </text>
  <text x="58.8" y="56" class="char c7">|</text>
  <text x="67.2" y="56" class="char c8"> </text>
  <text x="75.6" y="56" class="char c9">|</text>
  <text x="84.0" y="56" class="char c10"> </text>
  <text x="92.4" y="56" class="char c11">|</text>
  <text x="100.8" y="56" class="char c12"> </text>
  <text x="109.2" y="56" class="char c13">(</text>
  <text x="117.6" y="56" class="char c14">_</text>
  <text x="126.0" y="56" class="char c15">|</text>
  <text x="134.4" y="56" class="char c16"> </text>
  <text x="142.8" y="56" class="char c17">|</text>
  <text x="151.2" y="56" class="char c18"> </text>
  <text x="159.6" y="56" class="char c19">|</text>
  <text x="168.0" y="56" class="char c20"> </text>
  <text x="176.4" y="56" class="char c21"> </text>
  <text x="184.8" y="56" class="char c22">_</text>
  <text x="193.2" y="56" class="char c23">_</text>
  <text x="201.6" y="56" class="char c24">/</text>
  <text x="210.0" y="56" class="char c25"> </text>
  <text x="218.4" y="56" class="char c26">(</text>
  <text x="226.8" y="56" class="char c27">_</text>
  <text x="235.2" y="56" class="char c28">|</text>
  <text x="243.6" y="56" class="char c29"> </text>
  <text x="252.0" y="56" class="char c30">|</text>

  <!-- KHALED - Row 5 (y=70) -->
  <text x="0.0" y="70" class="char c0">|</text>
  <text x="8.4" y="70" class="char c1">_</text>
  <text x="16.8" y="70" class="char c2">|</text>
  <text x="25.2" y="70" class="char c3">\</text>
  <text x="33.6" y="70" class="char c4">_</text>
  <text x="42.0" y="70" class="char c5">\</text>
  <text x="50.4" y="70" class="char c6">_</text>
  <text x="58.8" y="70" class="char c7">|</text>
  <text x="67.2" y="70" class="char c8"> </text>
  <text x="75.6" y="70" class="char c9">|</text>
  <text x="84.0" y="70" class="char c10">_</text>
  <text x="92.4" y="70" class="char c11">|</text>
  <text x="100.8" y="70" class="char c12">\</text>
  <text x="109.2" y="70" class="char c13">_</text>
  <text x="117.6" y="70" class="char c14">_</text>
  <text x="126.0" y="70" class="char c15">,</text>
  <text x="134.4" y="70" class="char c16">_</text>
  <text x="142.8" y="70" class="char c17">|</text>
  <text x="151.2" y="70" class="char c18">_</text>
  <text x="159.6" y="70" class="char c19">|</text>
  <text x="168.0" y="70" class="char c20">\</text>
  <text x="176.4" y="70" class="char c21">_</text>
  <text x="184.8" y="70" class="char c22">_</text>
  <text x="193.2" y="70" class="char c23">_</text>
  <text x="201.6" y="70" class="char c24">/</text>
  <text x="210.0" y="70" class="char c25">\</text>
  <text x="218.4" y="70" class="char c26">_</text>
  <text x="226.8" y="70" class="char c27">_</text>
  <text x="235.2" y="70" class="char c28">,</text>
  <text x="243.6" y="70" class="char c29">_</text>
  <text x="252.0" y="70" class="char c30">|</text>

  <!-- ASHRAF - Row 1 (y=98, shifted from y=14) -->
  <text x="0.0" y="98" class="char c0"> </text>
  <text x="8.4" y="98" class="char c1"> </text>
  <text x="16.8" y="98" class="char c2"> </text>
  <text x="25.2" y="98" class="char c3"> </text>
  <text x="33.6" y="98" class="char c4"> </text>
  <text x="42.0" y="98" class="char c5"> </text>
  <text x="50.4" y="98" class="char c6"> </text>
  <text x="58.8" y="98" class="char c7"> </text>
  <text x="67.2" y="98" class="char c8"> </text>
  <text x="75.6" y="98" class="char c9"> </text>
  <text x="84.0" y="98" class="char c10"> </text>
  <text x="92.4" y="98" class="char c11">_</text>
  <text x="100.8" y="98" class="char c12"> </text>
  <text x="109.2" y="98" class="char c13"> </text>
  <text x="117.6" y="98" class="char c14"> </text>
  <text x="126.0" y="98" class="char c15"> </text>
  <text x="134.4" y="98" class="char c16"> </text>
  <text x="142.8" y="98" class="char c17"> </text>
  <text x="151.2" y="98" class="char c18"> </text>
  <text x="159.6" y="98" class="char c19"> </text>
  <text x="168.0" y="98" class="char c20"> </text>
  <text x="176.4" y="98" class="char c21"> </text>
  <text x="184.8" y="98" class="char c22"> </text>
  <text x="193.2" y="98" class="char c23"> </text>
  <text x="201.6" y="98" class="char c24"> </text>
  <text x="210.0" y="98" class="char c25"> </text>
  <text x="218.4" y="98" class="char c26"> </text>
  <text x="226.8" y="98" class="char c27"> </text>
  <text x="235.2" y="98" class="char c28">_</text>
  <text x="243.6" y="98" class="char c29">_</text>
  <text x="252.0" y="98" class="char c30"> </text>

  <!-- ASHRAF - Row 2 (y=112, shifted from y=28) -->
  <text x="0.0" y="112" class="char c0"> </text>
  <text x="8.4" y="112" class="char c1"> </text>
  <text x="16.8" y="112" class="char c2">_</text>
  <text x="25.2" y="112" class="char c3">_</text>
  <text x="33.6" y="112" class="char c4"> </text>
  <text x="42.0" y="112" class="char c5">_</text>
  <text x="50.4" y="112" class="char c6"> </text>
  <text x="58.8" y="112" class="char c7">_</text>
  <text x="67.2" y="112" class="char c8">_</text>
  <text x="75.6" y="112" class="char c9">_</text>
  <text x="84.0" y="112" class="char c10">|</text>
  <text x="92.4" y="112" class="char c11"> </text>
  <text x="100.8" y="112" class="char c12">|</text>
  <text x="109.2" y="112" class="char c13">_</text>
  <text x="117.6" y="112" class="char c14">_</text>
  <text x="126.0" y="112" class="char c15"> </text>
  <text x="134.4" y="112" class="char c16"> </text>
  <text x="142.8" y="112" class="char c17">_</text>
  <text x="151.2" y="112" class="char c18"> </text>
  <text x="159.6" y="112" class="char c19">_</text>
  <text x="168.0" y="112" class="char c20">_</text>
  <text x="176.4" y="112" class="char c21"> </text>
  <text x="184.8" y="112" class="char c22">_</text>
  <text x="193.2" y="112" class="char c23">_</text>
  <text x="201.6" y="112" class="char c24"> </text>
  <text x="210.0" y="112" class="char c25">_</text>
  <text x="218.4" y="112" class="char c26"> </text>
  <text x="226.8" y="112" class="char c27">/</text>
  <text x="235.2" y="112" class="char c28"> </text>
  <text x="243.6" y="112" class="char c29">_</text>
  <text x="252.0" y="112" class="char c30">|</text>

  <!-- ASHRAF - Row 3 (y=126, shifted from y=42) -->
  <text x="0.0" y="126" class="char c0"> </text>
  <text x="8.4" y="126" class="char c1">/</text>
  <text x="16.8" y="126" class="char c2"> </text>
  <text x="25.2" y="126" class="char c3">_</text>
  <text x="33.6" y="126" class="char c4">`</text>
  <text x="42.0" y="126" class="char c5"> </text>
  <text x="50.4" y="126" class="char c6">/</text>
  <text x="58.8" y="126" class="char c7"> </text>
  <text x="67.2" y="126" class="char c8">_</text>
  <text x="75.6" y="126" class="char c9">_</text>
  <text x="84.0" y="126" class="char c10">|</text>
  <text x="92.4" y="126" class="char c11"> </text>
  <text x="100.8" y="126" class="char c12">'</text>
  <text x="109.2" y="126" class="char c13">_</text>
  <text x="117.6" y="126" class="char c14"> </text>
  <text x="126.0" y="126" class="char c15">\</text>
  <text x="134.4" y="126" class="char c16">|</text>
  <text x="142.8" y="126" class="char c17"> </text>
  <text x="151.2" y="126" class="char c18">'</text>
  <text x="159.6" y="126" class="char c19">_</text>
  <text x="168.0" y="126" class="char c20">_</text>
  <text x="176.4" y="126" class="char c21">/</text>
  <text x="184.8" y="126" class="char c22"> </text>
  <text x="193.2" y="126" class="char c23">_</text>
  <text x="201.6" y="126" class="char c24">`</text>
  <text x="210.0" y="126" class="char c25"> </text>
  <text x="218.4" y="126" class="char c26">|</text>
  <text x="226.8" y="126" class="char c27"> </text>
  <text x="235.2" y="126" class="char c28">|</text>
  <text x="243.6" y="126" class="char c29">_</text>
  <text x="252.0" y="126" class="char c30"> </text>

  <!-- ASHRAF - Row 4 (y=140, shifted from y=56) -->
  <text x="0.0" y="140" class="char c0">|</text>
  <text x="8.4" y="140" class="char c1"> </text>
  <text x="16.8" y="140" class="char c2">(</text>
  <text x="25.2" y="140" class="char c3">_</text>
  <text x="33.6" y="140" class="char c4">|</text>
  <text x="42.0" y="140" class="char c5"> </text>
  <text x="50.4" y="140" class="char c6">\</text>
  <text x="58.8" y="140" class="char c7">_</text>
  <text x="67.2" y="140" class="char c8">_</text>
  <text x="75.6" y="140" class="char c9"> </text>
  <text x="84.0" y="140" class="char c10">\</text>
  <text x="92.4" y="140" class="char c11"> </text>
  <text x="100.8" y="140" class="char c12">|</text>
  <text x="109.2" y="140" class="char c13"> </text>
  <text x="117.6" y="140" class="char c14">|</text>
  <text x="126.0" y="140" class="char c15"> </text>
  <text x="134.4" y="140" class="char c16">|</text>
  <text x="142.8" y="140" class="char c17"> </text>
  <text x="151.2" y="140" class="char c18">|</text>
  <text x="159.6" y="140" class="char c19"> </text>
  <text x="168.0" y="140" class="char c20">|</text>
  <text x="176.4" y="140" class="char c21"> </text>
  <text x="184.8" y="140" class="char c22">(</text>
  <text x="193.2" y="140" class="char c23">_</text>
  <text x="201.6" y="140" class="char c24">|</text>
  <text x="210.0" y="140" class="char c25"> </text>
  <text x="218.4" y="140" class="char c26">|</text>
  <text x="226.8" y="140" class="char c27"> </text>
  <text x="235.2" y="140" class="char c28"> </text>
  <text x="243.6" y="140" class="char c29">_</text>
  <text x="252.0" y="140" class="char c30">|</text>

  <!-- ASHRAF - Row 5 (y=154, shifted from y=70) -->
  <text x="0.0" y="154" class="char c0"> </text>
  <text x="8.4" y="154" class="char c1">\</text>
  <text x="16.8" y="154" class="char c2">_</text>
  <text x="25.2" y="154" class="char c3">_</text>
  <text x="33.6" y="154" class="char c4">,</text>
  <text x="42.0" y="154" class="char c5">_</text>
  <text x="50.4" y="154" class="char c6">|</text>
  <text x="58.8" y="154" class="char c7">_</text>
  <text x="67.2" y="154" class="char c8">_</text>
  <text x="75.6" y="154" class="char c9">_</text>
  <text x="84.0" y="154" class="char c10">/</text>
  <text x="92.4" y="154" class="char c11">_</text>
  <text x="100.8" y="154" class="char c12">|</text>
  <text x="109.2" y="154" class="char c13"> </text>
  <text x="117.6" y="154" class="char c14">|</text>
  <text x="126.0" y="154" class="char c15">_</text>
  <text x="134.4" y="154" class="char c16">|</text>
  <text x="142.8" y="154" class="char c17">_</text>
  <text x="151.2" y="154" class="char c18">|</text>
  <text x="159.6" y="154" class="char c19"> </text>
  <text x="168.0" y="154" class="char c20"> </text>
  <text x="176.4" y="154" class="char c21">\</text>
  <text x="184.8" y="154" class="char c22">_</text>
  <text x="193.2" y="154" class="char c23">_</text>
  <text x="201.6" y="154" class="char c24">,</text>
  <text x="210.0" y="154" class="char c25">_</text>
  <text x="218.4" y="154" class="char c26">|</text>
  <text x="226.8" y="154" class="char c27">_</text>
  <text x="235.2" y="154" class="char c28">|</text>
  <text x="243.6" y="154" class="char c29"> </text>
  <text x="252.0" y="154" class="char c30"> </text>
</svg>
