<svg width="422" height="338" viewBox="0 0 422 338" fill="none" xmlns="http://www.w3.org/2000/svg">
<path d="M62.841 0.00975037C65.741 0.273775 71.6865 0.0704255 74.9215 0.0605755L98.2442 0L160.922 0.0603256L160.798 30.7234C171.403 30.7944 182.007 30.7937 192.612 30.7212C192.423 33.0102 192.604 35.4887 192.534 37.7794C192.311 45.1019 192.962 53.8231 192.213 61.0316C203.51 60.9509 216.079 60.6461 227.334 60.9606C227.165 58.4336 227.306 55.1584 227.27 52.5326C227.171 45.3041 227.442 37.9372 227.278 30.7197C230.758 30.8817 235.157 30.7644 238.737 30.7652L260.019 30.7639C259.722 27.2941 259.797 22.7717 259.767 19.2232C259.702 12.8299 259.672 6.43645 259.674 0.0428753C276.182 0.376975 293.472 0.0720764 310.019 0.0544014C326.037 0.0372764 342.877 0.422401 358.837 0.059576C358.594 10.2199 358.934 20.5289 358.667 30.7687C369.122 30.6747 379.604 30.8584 390.047 30.7306C389.574 39.8122 390.634 52.0549 389.814 60.8184C399.829 60.8126 411.207 61.1147 421.057 60.9042C420.829 68.8324 421.002 77.8384 420.977 85.8279L420.924 128.031C420.982 132.977 420.989 137.923 420.947 142.869C420.924 144.7 420.614 148.701 420.817 150.255L420.852 150.501L420.652 150.728C417.712 151.133 409.477 151.052 406.262 151.058C401.754 151.066 394.337 151.401 390.052 151.02C390.272 161.05 389.694 171.947 390.069 181.789C383.764 181.263 376.642 182.067 370.262 181.812C366.517 181.663 362.427 182.046 358.737 181.397C358.977 188.417 358.584 195.953 358.669 203.005C358.704 205.912 358.412 210.52 358.834 213.215C353.692 212.621 348.064 213.236 342.857 213.124C336.727 212.993 330.004 213.594 323.939 212.9C324.152 215.809 324.052 220.229 324.052 223.231L324.029 241.768C324.017 242.37 324.124 243.585 324.159 244.235C313.929 244.055 301.169 244.753 291.234 244.168C291.462 252.59 291.184 261.105 291.319 269.538C291.354 271.598 291.254 273.475 291.537 275.525C290.307 275.35 289.454 275.42 288.257 275.37C279.212 275.01 268.307 276.103 259.404 275.17C259.484 281.69 259.527 288.213 259.524 294.735C259.534 298.343 259.424 303.25 259.744 306.775C256.969 306.465 252.999 306.72 250.097 306.67C242.467 306.543 234.654 306.878 227.042 306.638C227.486 315.825 227.044 327.973 227.118 337.47C225.668 337.365 223.839 337.385 222.364 337.445C212.519 337.84 202.223 337.095 192.429 337.67C192.682 334.818 192.475 331.533 192.532 328.628C192.672 321.518 192.274 313.665 192.699 306.61C182.32 306.928 171.347 306.333 160.859 306.805C161.16 303.6 161.019 298.505 161.017 295.158L161.053 275.213C155.368 275.028 148.606 275.378 142.829 275.345C139.207 275.325 132.254 275.263 128.881 275.623C129.13 272.83 128.986 268.513 129.01 265.625C129.067 258.495 128.858 251.365 129.121 244.228C127.317 244.148 125.409 244.175 123.6 244.195C114.188 244.293 104.737 244.138 95.3305 244.315C95.628 241.415 95.4745 237.4 95.5317 234.378C95.6657 227.31 95.5107 220.145 95.7827 213.082C88.0745 212.423 79.4265 213.316 71.6372 213.08C68.6595 212.989 65.4067 212.884 62.4545 212.995C62.7825 209.835 62.7327 204.557 62.752 201.309C62.804 194.759 62.7855 188.209 62.6967 181.659C52.3855 181.885 41.0615 181.478 31.0217 181.846C31.6047 172.023 30.7055 161.169 31.333 151.182C24.245 150.752 16.6965 151.25 9.55895 151.1C6.53523 151.037 3.00297 151.023 0 151.25C0.40155 148.186 0.271575 142.009 0.28125 138.637L0.240775 114.649L0.281176 79.7877C0.292901 73.9257 0.506826 66.6721 0.225451 60.9014C10.0404 60.7341 21.5215 60.6279 31.2395 60.9594C30.9485 58.3436 31.0802 54.2659 31.0602 51.5579C31.0085 44.6506 31.303 37.6247 31.137 30.7234C33.961 30.9469 39.0707 30.7692 42.0275 30.7577C48.9365 30.7092 55.8455 30.7079 62.7545 30.7536C62.5365 27.0439 62.1125 2.42963 62.841 0.00975037ZM91.2355 60.8666C81.9815 60.6721 70.5835 61.2869 61.4895 60.6531C62.25 75.4931 61.6477 92.5007 61.694 107.472L61.752 134.615C61.7682 139.751 61.9567 146.187 61.6442 151.192C71.2332 150.491 85.3882 151.079 95.3155 151.055C95.208 149.492 95.1555 148.33 95.1822 146.768C95.3955 128.329 95.4832 109.889 95.446 91.4484L95.4355 73.1344C95.4582 69.3306 95.666 64.5926 95.442 60.8656C103.182 60.8921 110.923 60.8629 118.663 60.7776C121.556 60.7656 127.559 60.6191 130.29 60.9031C129.95 52.8474 130.359 44.5744 130.175 36.4957C130.136 34.7867 130.193 32.9994 130.289 31.2914C117.326 31.0959 104.011 31.5941 91.1087 31.1906C91.188 37.7156 91.225 44.2411 91.2197 50.7669C91.2157 53.3461 91.0005 58.4779 91.2355 60.8666Z" fill="#ef4444"/>
</svg>
