<svg width="417" height="431" viewBox="0 0 417 431" fill="none" xmlns="http://www.w3.org/2000/svg">
<path d="M192.116 0C194.372 0.2296 200.161 0.0354498 202.76 0.0312748C210.193 -0.000350203 217.625 0.0141748 225.058 0.0748248C224.863 6.16212 225.008 12.9545 224.99 19.0937L224.909 58.5367C232.026 58.4822 244.595 58.7879 251.342 58.2624C250.955 64.3834 251.105 72.1544 251.06 78.4104C250.992 91.4182 251.005 104.426 251.1 117.434C259.255 117.562 269.665 117.679 277.77 117.313C277.575 119.653 277.75 123.558 277.717 126.122L277.485 147.51C282.08 147.56 286.692 147.544 291.29 147.516C333.1 147.263 375.045 147.962 416.842 147.436C416.565 156.715 416.86 167.164 416.76 176.618C413.805 176.415 409.625 176.636 406.55 176.646L386.002 176.637C386.197 183.208 385.995 189.856 385.945 196.43C385.93 198.262 385.82 199.927 386.077 201.753C382.687 201.425 379.305 201.649 375.905 201.612C369.292 201.541 362.637 201.694 356.032 201.617C356.337 210.557 355.647 220.088 355.867 228.95C346.67 228.246 336.522 229.401 327.127 228.878C327.11 237.965 326.74 248.071 326.892 256.961C324.787 256.661 322.02 256.696 319.877 256.764C312.03 257.016 304.262 256.866 296.415 256.721C296.127 266.096 296.312 276.249 296.305 285.711C306.6 285.779 316.897 285.789 327.192 285.741C327.067 290.809 327.22 296.379 327.187 301.519L327.047 346.011C335.187 346.131 347.18 346.371 355.135 345.911C354.845 350.376 355.085 358.021 355.087 362.654L355.09 394.261L355.22 419.466C355.237 422.596 354.927 427.169 355.217 430.061C350.405 429.924 344.285 430.246 339.302 430.166C335.54 430.106 327.12 429.874 323.965 430.276C324.187 427.676 324.065 423.269 324.065 420.494L324.04 402.426C318.255 402.191 311.352 402.521 305.415 402.464C301.562 402.426 293.307 402.251 289.747 402.641C290.11 394.039 289.925 382.274 289.725 373.581C288.05 373.509 286.005 373.589 284.3 373.644C273.295 373.999 262.117 373.421 251.137 373.661C251.232 370.786 251.085 367.251 251.075 364.314L251.085 345.524C246.767 345.351 242.002 345.466 237.653 345.456C233.313 345.446 228.405 345.344 224.103 345.559C224.366 343.331 224.172 339.944 224.227 337.611C224.38 331.131 223.981 324.036 224.467 317.601C214.327 317.579 202.373 317.896 192.336 317.461L192.352 337.189C192.34 339.891 192.094 342.966 192.256 345.579C189.792 345.369 185.765 345.461 183.169 345.451C177.416 345.416 171.663 345.441 165.911 345.526C166.203 354.721 165.652 364.344 165.831 373.596C163.308 373.429 159.475 373.616 156.85 373.646L139.427 373.691C135.644 373.691 130.997 373.804 127.309 373.451C127.542 379.956 127.2 386.984 127.316 393.531C127.367 396.451 127.041 399.636 127.338 402.514C126.092 402.389 125.037 402.434 123.798 402.439C113.513 402.481 103.097 402.744 92.8195 402.404L92.6688 420.196C92.6448 422.376 92.6993 427.569 92.3875 429.526C90.2708 430.786 66.1293 429.731 61.7618 430.251L61.4515 430.289C61.7573 427.441 61.5195 420.871 61.4875 417.744L61.4605 397.526L61.349 360.361C61.3513 355.864 61.785 350.441 61.6185 346.159C64.6295 346.271 68.5443 346.059 71.6555 346.026L90.5798 345.954C90.1495 343.074 90.3333 333.769 90.3333 330.341L90.3658 298.984C90.3493 294.884 90.5778 289.869 90.3208 285.864C100.135 285.549 110.966 285.716 120.848 285.756L120.938 256.949C116.339 256.624 110.228 256.849 105.516 256.901C100.931 256.951 94.6638 256.659 90.3278 257.049C90.562 254.829 90.3268 250.974 90.3515 248.559C90.4183 242.054 90.185 235.405 90.4218 228.909C83.8283 228.731 77.4755 228.779 70.8805 228.941C67.5418 229.023 64.1693 228.769 60.8373 229.033C61.1058 225.977 60.938 221.422 60.9233 218.272L60.929 201.565C56.6145 201.332 50.8268 201.531 46.3478 201.545C41.6105 201.559 35.2788 201.31 30.7465 201.635C31.0068 198.505 30.8918 194.748 30.8788 191.569C30.854 186.587 30.8563 181.604 30.8858 176.622C22.8508 176.694 14.8096 176.473 6.77262 176.552C4.47473 176.575 2.28595 176.494 0 176.764C0.491275 170.349 -0.19245 163.17 0.1067 156.673C0.2358 153.869 0.3015 150.463 0.168925 147.696C15.7186 147.167 32.8213 147.536 48.4753 147.528L140.067 147.554C140.047 141.562 140.059 135.569 140.104 129.577C140.134 125.722 140.282 121.322 140.094 117.544L167.258 117.473L167.192 76.8862C167.168 70.9969 167.386 64.2797 167.022 58.4507C175.236 58.5824 183.802 58.4667 192.035 58.4029C191.615 51.8199 192.01 40.9462 191.979 33.9822L191.95 14.5357C191.935 9.8821 191.82 4.6153 192.116 0Z" fill="#facc15"/>
</svg>
