<svg width="305" height="376" viewBox="0 0 305 376" fill="none" xmlns="http://www.w3.org/2000/svg">
<path d="M187.403 27.2959L159.204 27.3105L159.211 0L107.326 0.00585938L107.312 77.6777L81.5938 77.71C81.5713 85.8945 81.8037 95.7778 81.4062 103.824L54.0693 103.823L54.0752 138.438L27.7012 138.461C27.8407 152.553 27.8784 166.646 27.8154 180.738C18.5929 180.768 9.20617 180.699 0 180.842V362.956L40.4541 362.844V375L238.584 375.724L238.509 349.806L259.644 349.9L259.517 327.863L276.481 327.864L276.233 290.658L292.501 290.732L292.427 230.69L304.381 230.738C304.253 208.374 304.261 186.009 304.411 163.645C295.846 163.66 287.026 163.567 278.491 163.755C278.604 155.162 278.604 146.297 278.866 137.731L187.329 137.776C187.224 101.663 186.563 63.2093 187.403 27.2959Z" fill="#3b82f6"/>
<path d="M133.561 29.6944C141.886 29.6719 150.954 29.4784 159.196 29.9607C159.729 65.1773 159.301 101.402 159.249 136.705C150.504 136.49 141.759 136.414 133.006 136.475L132.811 164.658C180.916 164.116 230.064 164.635 278.251 164.634L278.221 203.46L199.554 203.298C199.614 212.469 199.606 221.641 199.516 230.811C221.334 230.314 244.914 230.719 266.866 230.703L266.761 263.445L199.614 263.331C199.696 272.396 199.569 281.632 199.531 290.712L245.431 290.706C248.469 290.738 247.974 290.263 250.021 291.712C250.809 297.637 250.306 316.721 250.344 323.948C231.834 324.636 210.249 324.121 191.589 323.974L191.424 348.828L53.3939 348.81L53.3886 325.272C44.8708 325.545 35.4898 325.401 26.9023 325.45L26.8401 205.381L54.6539 205.44L54.3644 164.499L81.1663 164.589L80.9788 137.719L106.899 137.788L106.674 105.056L133.546 105.121L133.561 29.6944Z" fill="white"/>
</svg>
